<svg xmlns="http://www.w3.org/2000/svg" viewBox="0 0 604 105">
<style type="text/css">
	.wdt-cus-logo-01{fill:#9E6747;}
</style>
<path class="wdt-cus-logo-01" d="M30,105H0V75h30V105z"/>
<path d="M105.3,90.1H45.2v-30h60.1V90.1z"/>
<path class="wdt-cus-logo-01" d="M45.2,60.1h-30V30h30V60.1z"/>
<path class="wdt-cus-logo-01" d="M105.3,60.1h-30V0h30V60.1z"/>
<path d="M75.2,30H15.2V0h60.1V30z"/>
<path d="M182.5,32.4c-0.2,2.2-0.3,4.4-0.4,6.4c0,2.1-0.1,3.6-0.1,4.8c0,1,0,2,0.1,2.9c0,0.9,0.1,1.7,0.1,2.3h-1.6
	c-0.7-3.7-1.7-6.7-2.9-8.8c-1.2-2.2-2.6-3.7-4.3-4.6c-1.6-0.9-3.3-1.3-5.3-1.3h-1.6c-1.3,0-2.2,0.1-2.9,0.4
	c-0.7,0.2-1.1,0.6-1.3,1.3c-0.2,0.7-0.3,1.7-0.3,3.1V74c0,1.9,0.2,3.3,0.6,4.2c0.4,0.9,1.1,1.5,2.2,1.8s2.7,0.4,4.8,0.5V82
	c-1.5,0-3.5-0.1-5.9-0.1s-5-0.1-7.6-0.1c-2.1,0-4.2,0-6.2,0.1c-2,0-3.9,0.1-5.6,0.1v-1.4c1.4-0.1,2.5-0.3,3.2-0.6
	c0.7-0.3,1.2-0.8,1.5-1.7c0.3-0.8,0.4-2.1,0.4-3.8V39.9c0-1.7-0.1-3-0.4-3.8c-0.2-0.8-0.7-1.4-1.5-1.7c-0.7-0.3-1.8-0.5-3.2-0.6
	v-1.4c2,0,4.1,0.1,6.3,0.1c2.2,0,4.4,0,6.6,0.1c2.2,0,4.2,0,6.1,0c1.9,0,3.5,0,4.7,0c2.1,0,4.6,0,7.3,0
	C177.9,32.6,180.3,32.5,182.5,32.4z M172.2,56.5c0,0,0,0.2,0,0.7c0,0.5,0,0.7,0,0.7h-12.3c0,0,0-0.2,0-0.7c0-0.5,0-0.7,0-0.7H172.2z
	 M174.1,47.3c-0.2,2.7-0.3,4.7-0.3,6.1c0,1.4,0.1,2.7,0.1,3.9c0,1.2,0,2.4,0.1,3.8s0.2,3.4,0.4,6.1h-1.6c-0.3-1.7-0.8-3.2-1.5-4.6
	c-0.7-1.4-1.8-2.5-3-3.4c-1.2-0.8-2.8-1.3-4.6-1.3v-1.4c1.4,0,2.5-0.3,3.6-0.8c1-0.6,1.9-1.4,2.6-2.3c0.7-0.9,1.4-1.9,1.8-3
	s0.8-2.1,1-3.1H174.1z M228.4,45v29.4c0,2.1,0.3,3.7,0.9,4.7c0.7,1,1.8,1.5,3.3,1.5V82c-1.4-0.1-2.9-0.2-4.3-0.2
	c-2.1,0-4.2,0.1-6,0.2c-1.8,0.1-3.5,0.4-5.2,0.8v-5.7c-1.1,2.1-2.7,3.6-4.6,4.6c-1.9,0.9-4.1,1.3-6.6,1.3c-2.1,0-3.7-0.3-5-0.8
	c-1.2-0.5-2.1-1.2-2.8-2c-0.7-0.8-1.3-2-1.6-3.4c-0.3-1.4-0.5-3.3-0.5-5.7V53.4c0-2.1-0.3-3.6-0.9-4.6c-0.6-1-1.7-1.5-3.3-1.5v-1.5
	c1.5,0.1,2.9,0.2,4.3,0.2c2.1,0,4.2-0.1,6-0.2c1.9-0.2,3.6-0.4,5.2-0.8v29.5c0,1.1,0.1,2,0.4,2.7c0.2,0.7,0.6,1.3,1.2,1.8
	c0.6,0.4,1.3,0.6,2.2,0.6c1.1,0,2.1-0.3,2.9-0.8c0.9-0.6,1.6-1.3,2.2-2.3c0.6-1,0.8-2.2,0.8-3.4V53.4c0-2.1-0.3-3.6-0.9-4.6
	c-0.6-1-1.7-1.5-3.3-1.5v-1.5c1.5,0.1,2.9,0.2,4.3,0.2c2.1,0,4.2-0.1,6-0.2C225.1,45.6,226.8,45.3,228.4,45z M267.4,44.8
	c1.6,0,2.8,0.4,3.8,1.1c0.9,0.7,1.6,1.5,2,2.6c0.4,1,0.6,2.1,0.6,3.1c0,1.9-0.6,3.5-1.7,4.6c-1.1,1.2-2.5,1.8-4.3,1.8
	c-1.9,0-3.3-0.4-4.3-1.3c-1-0.9-1.5-2.1-1.5-3.5s0.3-2.6,0.9-3.6c0.7-0.9,1.4-1.7,2.4-2.4c-0.7-0.1-1.4,0-2,0.3
	c-0.7,0.2-1.4,0.5-2.1,1.1c-0.7,0.5-1.2,1.1-1.7,1.8c-0.5,0.7-0.8,1.5-1.1,2.3c-0.2,0.8-0.4,1.6-0.4,2.5v19.7c0,2.2,0.5,3.8,1.5,4.5
	c1,0.8,2.6,1.2,4.8,1.2V82c-1.1,0-2.7-0.1-4.8-0.1c-2.1-0.1-4.3-0.1-6.5-0.1c-2,0-4,0-6.1,0.1c-2,0-3.5,0.1-4.5,0.1v-1.5
	c1.5,0,2.6-0.3,3.2-1c0.7-0.7,1-2,1-4V53.4c0-2.1-0.3-3.6-0.9-4.6c-0.6-1-1.7-1.5-3.3-1.5v-1.5c1.5,0.1,2.9,0.2,4.3,0.2
	c2.1,0,4.1-0.1,5.9-0.2c1.9-0.2,3.7-0.4,5.3-0.8v5.7c0.6-1.2,1.3-2.3,2.2-3.1c0.9-0.9,2-1.6,3.2-2C264.7,45,266,44.8,267.4,44.8z
	 M309.5,44.8c2.1,0,3.7,0.3,4.9,0.8c1.3,0.5,2.2,1.2,2.9,2c0.7,0.9,1.3,2,1.6,3.4c0.4,1.4,0.6,3.3,0.6,5.7v18.9c0,2,0.3,3.3,0.9,4
	c0.7,0.7,1.8,1,3.3,1V82c-0.9,0-2.3-0.1-4.2-0.1c-1.8-0.1-3.6-0.1-5.3-0.1c-1.9,0-3.8,0-5.5,0.1c-1.8,0-3.1,0.1-4,0.1v-1.5
	c1.3,0,2.2-0.3,2.7-1c0.5-0.7,0.8-2,0.8-4V53.2c0-1.1-0.1-2-0.3-2.7c-0.2-0.8-0.6-1.4-1.2-1.8c-0.6-0.4-1.4-0.6-2.4-0.6
	c-1.1,0-2.1,0.3-3,0.8c-0.9,0.6-1.6,1.4-2.2,2.4c-0.5,1-0.8,2.1-0.8,3.4v20.8c0,2,0.3,3.3,0.8,4c0.5,0.7,1.4,1,2.7,1V82
	c-0.9,0-2.2-0.1-3.9-0.1c-1.7-0.1-3.4-0.1-5.1-0.1c-1.9,0-3.8,0-5.7,0.1c-1.9,0-3.4,0.1-4.3,0.1v-1.5c1.5,0,2.6-0.3,3.2-1
	c0.7-0.7,1-2,1-4V53.4c0-2.1-0.3-3.6-0.9-4.6c-0.6-1-1.7-1.5-3.3-1.5v-1.5c1.5,0.1,2.9,0.2,4.3,0.2c2.1,0,4.1-0.1,5.9-0.2
	c1.9-0.2,3.7-0.4,5.3-0.8v5.7c1.1-2.1,2.6-3.7,4.6-4.5C304.8,45.2,307,44.8,309.5,44.8z M342.5,27.5c2.2,0,3.9,0.5,5.1,1.5
	c1.3,1,1.9,2.4,1.9,4.3s-0.6,3.3-1.9,4.3c-1.2,1-2.9,1.5-5.1,1.5c-2.2,0-3.9-0.5-5.2-1.5c-1.2-1-1.8-2.4-1.8-4.3s0.6-3.3,1.8-4.3
	C338.5,28,340.3,27.5,342.5,27.5z M348.6,45v30.5c0,2,0.3,3.3,0.9,4c0.7,0.7,1.8,1,3.3,1V82c-0.9,0-2.3-0.1-4.1-0.1
	c-1.8-0.1-3.7-0.1-5.5-0.1s-3.8,0-5.7,0.1c-1.9,0-3.4,0.1-4.3,0.1v-1.5c1.5,0,2.6-0.3,3.2-1c0.7-0.7,1-2,1-4V53.4
	c0-2.1-0.3-3.6-0.9-4.6c-0.6-1-1.7-1.5-3.3-1.5v-1.5c1.5,0.1,2.9,0.2,4.3,0.2c2.1,0,4.1-0.1,5.9-0.2C345.3,45.6,347,45.3,348.6,45z
	 M401.6,32.4c-0.2,2.2-0.3,4.4-0.4,6.4c0,2.1-0.1,3.6-0.1,4.8c0,1,0,2,0.1,2.9c0,0.9,0.1,1.7,0.1,2.3h-1.6c-0.7-3.7-1.7-6.7-2.9-8.8
	c-1.2-2.2-2.6-3.7-4.3-4.6c-1.6-0.9-3.3-1.3-5.3-1.3h-1.6c-1.3,0-2.2,0.1-2.9,0.4c-0.7,0.2-1.1,0.6-1.3,1.3
	c-0.2,0.7-0.3,1.7-0.3,3.1V74c0,1.9,0.2,3.3,0.6,4.2c0.4,0.9,1.1,1.5,2.2,1.8c1.1,0.3,2.7,0.4,4.8,0.5V82c-1.5,0-3.5-0.1-6-0.1
	c-2.4,0-5-0.1-7.6-0.1c-2.1,0-4.2,0-6.2,0.1c-2,0-3.9,0.1-5.6,0.1v-1.4c1.4-0.1,2.5-0.3,3.2-0.6c0.7-0.3,1.2-0.8,1.5-1.7
	c0.3-0.8,0.4-2.1,0.4-3.8V39.9c0-1.7-0.1-3-0.4-3.8c-0.2-0.8-0.7-1.4-1.5-1.7c-0.7-0.3-1.8-0.5-3.2-0.6v-1.4c2,0,4.1,0.1,6.3,0.1
	c2.2,0,4.4,0,6.6,0.1c2.2,0,4.2,0,6.1,0c1.9,0,3.5,0,4.7,0c2.1,0,4.6,0,7.3,0C397,32.6,399.4,32.5,401.6,32.4z M391.3,56.5
	c0,0,0,0.2,0,0.7c0,0.5,0,0.7,0,0.7h-12.3c0,0,0-0.2,0-0.7c0-0.5,0-0.7,0-0.7H391.3z M393.2,47.3c-0.2,2.7-0.3,4.7-0.3,6.1
	c0,1.4,0.1,2.7,0.1,3.9c0,1.2,0,2.4,0.1,3.8c0,1.4,0.2,3.4,0.4,6.1h-1.6c-0.3-1.7-0.8-3.2-1.5-4.6c-0.7-1.4-1.8-2.5-3-3.4
	c-1.2-0.8-2.8-1.3-4.6-1.3v-1.4c1.4,0,2.5-0.3,3.6-0.8c1-0.6,1.9-1.4,2.6-2.3c0.7-0.9,1.4-1.9,1.8-3c0.5-1.1,0.8-2.1,1-3.1H393.2z
	 M428.2,44.8c3.5,0,6.6,0.6,9.2,1.9c2.7,1.2,4.7,3.2,6.2,6c1.5,2.8,2.2,6.5,2.2,11.2s-0.7,8.4-2.2,11.2c-1.4,2.8-3.5,4.8-6.2,6.1
	c-2.6,1.2-5.7,1.8-9.2,1.8c-3.5,0-6.5-0.6-9.2-1.8c-2.6-1.3-4.7-3.3-6.2-6.1c-1.5-2.8-2.2-6.5-2.2-11.2s0.7-8.4,2.2-11.2
	c1.5-2.8,3.5-4.8,6.2-6C421.7,45.4,424.8,44.8,428.2,44.8z M428.2,46.2c-1.6,0-3,1.4-4.1,4.2c-1.1,2.8-1.6,7.3-1.6,13.5
	s0.5,10.8,1.6,13.6c1.1,2.8,2.5,4.1,4.1,4.1c1.7,0,3.1-1.4,4.1-4.1c1.1-2.8,1.6-7.3,1.6-13.6s-0.5-10.8-1.6-13.5
	C431.3,47.6,429.9,46.2,428.2,46.2z M481.6,44.8c1.6,0,2.8,0.4,3.8,1.1c0.9,0.7,1.6,1.5,2,2.6c0.4,1,0.6,2.1,0.6,3.1
	c0,1.9-0.6,3.5-1.7,4.6c-1.1,1.2-2.5,1.8-4.3,1.8c-1.9,0-3.3-0.4-4.3-1.3c-1-0.9-1.5-2.1-1.5-3.5s0.3-2.6,0.9-3.6
	c0.7-0.9,1.4-1.7,2.4-2.4c-0.7-0.1-1.4,0-2,0.3c-0.7,0.2-1.4,0.5-2.1,1.1c-0.7,0.5-1.2,1.1-1.7,1.8c-0.5,0.7-0.8,1.5-1.1,2.3
	c-0.2,0.8-0.4,1.6-0.4,2.5v19.7c0,2.2,0.5,3.8,1.5,4.5c1,0.8,2.6,1.2,4.8,1.2V82c-1.1,0-2.7-0.1-4.8-0.1c-2.1-0.1-4.3-0.1-6.5-0.1
	c-2,0-4,0-6.1,0.1c-2,0-3.5,0.1-4.5,0.1v-1.5c1.5,0,2.6-0.3,3.2-1c0.7-0.7,1-2,1-4V53.4c0-2.1-0.3-3.6-0.9-4.6
	c-0.6-1-1.7-1.5-3.3-1.5v-1.5c1.5,0.1,2.9,0.2,4.3,0.2c2.1,0,4.1-0.1,6-0.2c1.9-0.2,3.7-0.4,5.3-0.8v5.7c0.6-1.2,1.3-2.3,2.2-3.1
	c0.9-0.9,2-1.6,3.1-2C478.9,45,480.2,44.8,481.6,44.8z M523.2,44.8c2,0,3.6,0.3,4.8,0.8c1.3,0.5,2.2,1.2,2.9,2
	c0.7,0.9,1.3,2.1,1.6,3.5c0.3,1.4,0.5,3.3,0.5,5.6v18.9c0,2,0.3,3.3,0.8,4c0.6,0.7,1.5,1,2.9,1V82c-0.9,0-2.2-0.1-3.9-0.1
	c-1.7-0.1-3.4-0.1-5-0.1c-1.8,0-3.5,0-5.2,0.1c-1.7,0-2.9,0.1-3.8,0.1v-1.5c1.1,0,1.8-0.3,2.2-1c0.5-0.7,0.7-2,0.7-4V53.2
	c0-1.1-0.1-2-0.3-2.7c-0.2-0.8-0.5-1.4-1-1.8c-0.5-0.4-1.1-0.6-2-0.6c-1,0-2,0.3-2.9,0.8c-0.9,0.6-1.6,1.4-2.2,2.4
	c-0.5,1-0.8,2.1-0.8,3.4v20.8c0,2,0.2,3.3,0.6,4c0.4,0.7,1.2,1,2.3,1V82c-0.8,0-2-0.1-3.6-0.1c-1.6-0.1-3.2-0.1-4.8-0.1
	c-1.9,0-3.8,0-5.7,0.1c-1.9,0-3.4,0.1-4.3,0.1v-1.5c1.5,0,2.6-0.3,3.2-1c0.7-0.7,1-2,1-4V53.4c0-2.1-0.3-3.6-0.9-4.6
	c-0.6-1-1.7-1.5-3.3-1.5v-1.5c1.5,0.1,2.9,0.2,4.3,0.2c2.1,0,4.1-0.1,6-0.2c1.9-0.2,3.7-0.4,5.3-0.8v5.7c1.1-2.1,2.5-3.6,4.3-4.5
	C518.7,45.2,520.8,44.8,523.2,44.8z M544.2,44.8c2,0,3.6,0.3,4.8,0.8c1.3,0.5,2.2,1.2,2.9,2c0.7,0.9,1.3,2.1,1.6,3.5
	c0.3,1.4,0.5,3.3,0.5,5.6v18.9c0,2,0.3,3.3,0.9,4c0.7,0.7,1.8,1,3.3,1V82c-0.9,0-2.3-0.1-4.2-0.1c-1.8-0.1-3.6-0.1-5.3-0.1
	c-1.8,0-3.5,0-5.2,0.1c-1.7,0-2.9,0.1-3.8,0.1v-1.5c1.1,0,1.8-0.3,2.2-1c0.5-0.7,0.7-2,0.7-4V53.2c0-1.1-0.1-2-0.3-2.7
	c-0.2-0.8-0.6-1.4-1.2-1.8c-0.5-0.4-1.3-0.6-2.3-0.6c-1,0-2,0.3-2.9,1c-0.9,0.6-1.6,1.4-2.2,2.5c-0.5,1-0.8,2.2-0.9,3.4l-0.4-3.5
	c1.3-2.6,2.9-4.4,5-5.3C539.5,45.2,541.8,44.8,544.2,44.8z M577.2,82.5c-2.1,0-3.9-0.4-5.3-1.2c-1.4-0.8-2.4-1.9-3.1-3.3
	c-0.7-1.4-1-2.8-1-4.3c0-2,0.4-3.6,1.3-4.8c0.9-1.3,2.1-2.3,3.6-3c1.4-0.8,3-1.4,4.5-2c1.6-0.5,3.1-1,4.5-1.5
	c1.4-0.5,2.6-1.1,3.5-1.8c0.9-0.7,1.3-1.6,1.3-2.7v-5.8c0-1-0.2-2-0.5-2.9c-0.3-0.9-0.8-1.7-1.6-2.2c-0.7-0.6-1.8-0.9-3.2-0.9
	c-0.8,0-1.7,0.1-2.5,0.3c-0.8,0.2-1.5,0.6-2.1,1.1c1.5,0.5,2.6,1.3,3.3,2.3c0.7,1,1.1,2.2,1.1,3.4c0,1.7-0.6,3.1-1.8,4.1
	c-1.2,1-2.6,1.5-4.2,1.5c-1.8,0-3.2-0.6-4.1-1.7c-0.9-1.1-1.4-2.5-1.4-4.1c0-1.4,0.4-2.6,1-3.5c0.7-1,1.7-1.9,3.1-2.7
	c1.4-0.8,3-1.4,4.9-1.8c1.9-0.4,3.9-0.6,6.1-0.6c2.2,0,4.2,0.2,6,0.7c1.9,0.4,3.5,1.3,4.8,2.6c1,1.1,1.7,2.4,2,3.9
	c0.3,1.5,0.4,3.5,0.4,5.9v18.9c0,1.2,0.1,2,0.3,2.4c0.2,0.4,0.6,0.6,1,0.6c0.4,0,0.8-0.1,1.2-0.3c0.4-0.2,0.7-0.5,1.1-0.8l0.8,1.2
	c-1,0.8-2.2,1.5-3.6,2c-1.4,0.4-2.9,0.6-4.5,0.6c-1.9,0-3.3-0.2-4.4-0.7c-1-0.5-1.8-1.2-2.2-2c-0.4-0.8-0.7-1.8-0.7-2.8
	c-1,1.7-2.3,3-3.9,4.1C581.5,82,579.5,82.5,577.2,82.5z M583,77.4c0.7,0,1.4-0.1,2-0.4c0.6-0.3,1.2-0.9,1.7-1.6V60.9
	c-0.4,0.7-0.9,1.3-1.5,1.9c-0.6,0.6-1.3,1.1-2,1.8c-0.7,0.6-1.4,1.2-2,1.9c-0.6,0.7-1.1,1.5-1.5,2.5c-0.4,0.9-0.6,2.1-0.6,3.4
	c0,1.8,0.4,3.1,1.1,3.9C580.9,77.1,581.8,77.4,583,77.4z"/>
</svg>
